<svg viewBox="0 0 512 512" style="enable-background:new 0 0 512 512;" fill="#000000" transform="scale(0.8)">
<path d="M428.562,488.757H51.856C23.263,488.757,0,465.494,0,436.9V213.298
	c0-28.594,23.263-51.856,51.856-51.856h408.287c15.026,0,29.296,6.505,39.148,17.849c9.854,11.342,14.299,26.381,12.198,41.258
	l-31.581,223.604C476.318,469.582,454.244,488.757,428.562,488.757z M51.856,190.621c-12.505,0-22.677,10.173-22.677,22.677v223.604
	c0,12.505,10.173,22.678,22.677,22.678h376.707c11.231,0,20.883-8.386,22.455-19.506l31.581-223.604
	c0.932-6.602-0.961-13.009-5.334-18.041c-4.372-5.033-10.453-7.807-17.121-7.807L51.856,190.621L51.856,190.621z"/>
<path style="fill:#4f4f4f;" d="M51.856,176.032h399.07v-52.366c0-18.247-14.792-33.038-33.038-33.038H177.155l-17.645-34.723
	c-5.634-11.088-17.017-18.072-29.453-18.072h-82.43c-18.246,0-33.038,14.792-33.038,33.038v17.35v125.078
	C14.59,192.716,31.274,176.032,51.856,176.032z"/>
<path d="M14.59,227.889c-8.058,0-14.59-6.533-14.59-14.59V70.872c0-26.263,21.366-47.629,47.628-47.629h82.43
	c18.025,0,34.296,9.984,42.46,26.051l13.589,26.743h231.781c26.261,0,47.628,21.366,47.628,47.629v52.366
	c0,8.056-6.532,14.59-14.59,14.59H51.856c-12.503,0-22.677,10.172-22.677,22.678C29.179,221.356,22.647,227.889,14.59,227.889z
	 M47.628,52.422c-10.173,0-18.448,8.277-18.448,18.45v95.796c6.854-3.347,14.55-5.226,22.677-5.226h384.48v-37.777
	c0-10.173-8.275-18.45-18.448-18.45H177.154c-5.492,0-10.519-3.084-13.007-7.98l-17.645-34.723
	c-3.163-6.225-9.464-10.092-16.447-10.092H47.628V52.422z"/>
</svg>
